# xmcd
#
# Track frame offsets: 
#        150
#        22868
#        40211
#        58248
#        76476
#        90233
#        104109
#        117749
#        140864
#        152272
#        169582
#        187050
#        203343
#        227996
#        250510
#
# Disc length: 3605 seconds
#
# Revision: 0
# Processed by: cddbd v1.5.2PL0 Copyright (c) Steve Scherf et al.
# Submitted via: ExactAudioCopyFreeDBPlugin 1.0
#
DISCID=c40e130f
DTITLE=Lowell Levinger - Down To The Roots
DYEAR=2014
DGENRE=Blues
TTITLE0=Married To The Blues
TTITLE1=Love Is A Five Letter Word
TTITLE2=Blue Morning - Good Day For The Blues
TTITLE3=Like A Road
TTITLE4=Blues My Naughty Sweetie Gives Me
TTITLE5=I'll Do Anything But Work
TTITLE6=Blue Monday
TTITLE7=Just Can't Quit The Blues
TTITLE8=Nobody Knows You When You're Down And Out
TTITLE9=Blue Driver
TTITLE10=If You Got To Make A Fool Of Somebody
TTITLE11=Corrina Corrina
TTITLE12=Precious Gold
TTITLE13=Riding With The King
TTITLE14=L'Italiano (bonus)
EXTD=
EXTT0=
EXTT1=
EXTT2=
EXTT3=
EXTT4=
EXTT5=
EXTT6=
EXTT7=
EXTT8=
EXTT9=
EXTT10=
EXTT11=
EXTT12=
EXTT13=
EXTT14=
PLAYORDER=
